<?xml version="1.0" encoding="iso-8859-1"?>

<svg version="1.1" xmlns="http://www.w3.org/2000/svg">

    <svg viewBox="0 0 52.226 52.226" id="apple-icon">
        <g>
            <g>
                <path d="M36.802,1.055L36.747,0l-1.05,0.113c-0.103,0.011-10.252,1.234-10.948,12.581l-0.07,1.136l1.136-0.077
                    C25.931,13.745,37.426,12.828,36.802,1.055z M34.821,2.322c-0.191,6.838-5.511,8.74-7.953,9.253
                    C27.798,4.93,32.617,2.905,34.821,2.322z"/>
                <path d="M46.584,37.517l-0.639-0.207c-3.867-1.25-6.464-4.792-6.464-8.814c0-3.578,2.023-6.778,5.281-8.352l0.972-0.469
                    l-0.542-0.933c-0.232-0.4-2.401-3.943-6.983-5.116c-3.634-0.93-7.72-0.107-12.149,2.447c-1.875-1.138-8.103-4.418-13.058-1.13
                    c-0.97,0.536-11.251,6.695-5.9,23.313c0.157,0.372,3.888,9.113,8.303,12.387c1.191,1.138,4.237,2.56,7.718,0.187
                    c0.603-0.249,4.638-1.802,7.198,0.017c0.945,0.647,2.595,1.38,4.338,1.38c1.322,0,2.697-0.421,3.859-1.621
                    c0.542-0.469,5.493-4.888,8.066-11.888l0.075-0.204L46.584,37.517z M37.182,49.115l-0.077,0.073
                    c-2.193,2.303-5.518,0.1-5.641,0.018c-1.308-0.93-2.823-1.233-4.244-1.233c-2.579,0-4.847,0.999-4.992,1.064l-0.163,0.092
                    c-3.019,2.107-5.086,0.253-5.305,0.042l-0.118-0.101c-3.993-2.912-7.663-11.507-7.668-11.51
                    C3.966,21.992,13.56,16.9,13.968,16.693l0.11-0.065c4.647-3.12,11.327,1.396,11.393,1.441l0.533,0.366l0.552-0.333
                    c4.16-2.515,7.914-3.37,11.157-2.539c2.642,0.676,4.326,2.327,5.15,3.342c-3.347,2.051-5.381,5.63-5.381,9.591
                    c0,4.556,2.735,8.604,6.902,10.365C41.819,45.122,37.231,49.074,37.182,49.115z"/>
            </g>
        </g>
        <g>
        </g>
        <g>
        </g>
        <g>
        </g>
        <g>
        </g>
        <g>
        </g>
        <g>
        </g>
        <g>
        </g>
        <g>
        </g>
        <g>
        </g>
        <g>
        </g>
        <g>
        </g>
        <g>
        </g>
        <g>
        </g>
        <g>
        </g>
        <g>
        </g>
        </svg>

        <svg viewBox="0 0 487.95 487.95" style="enable-background:new 0 0 487.95 487.95;" id="search-icon">
        <g>
            <g>
                <path d="M481.8,453l-140-140.1c27.6-33.1,44.2-75.4,44.2-121.6C386,85.9,299.5,0.2,193.1,0.2S0,86,0,191.4s86.5,191.1,192.9,191.1
                    c45.2,0,86.8-15.5,119.8-41.4l140.5,140.5c8.2,8.2,20.4,8.2,28.6,0C490,473.4,490,461.2,481.8,453z M41,191.4
                    c0-82.8,68.2-150.1,151.9-150.1s151.9,67.3,151.9,150.1s-68.2,150.1-151.9,150.1S41,274.1,41,191.4z"/>
            </g>
        </g>
        <g>
        </g>
        <g>
        </g>
        <g>
        </g>
        <g>
        </g>
        <g>
        </g>
        <g>
        </g>
        <g>
        </g>
        <g>
        </g>
        <g>
        </g>
        <g>
        </g>
        <g>
        </g>
        <g>
        </g>
        <g>
        </g>
        <g>
        </g>
        <g>
        </g>
        </svg>

        <svg viewBox="0 0 483.1 483.1" style="enable-background:new 0 0 483.1 483.1;" id="cart-icon">
        <g>
            <path d="M434.55,418.7l-27.8-313.3c-0.5-6.2-5.7-10.9-12-10.9h-58.6c-0.1-52.1-42.5-94.5-94.6-94.5s-94.5,42.4-94.6,94.5h-58.6
                c-6.2,0-11.4,4.7-12,10.9l-27.8,313.3c0,0.4,0,0.7,0,1.1c0,34.9,32.1,63.3,71.5,63.3h243c39.4,0,71.5-28.4,71.5-63.3
                C434.55,419.4,434.55,419.1,434.55,418.7z M241.55,24c38.9,0,70.5,31.6,70.6,70.5h-141.2C171.05,55.6,202.65,24,241.55,24z
                M363.05,459h-243c-26,0-47.2-17.3-47.5-38.8l26.8-301.7h47.6v42.1c0,6.6,5.4,12,12,12s12-5.4,12-12v-42.1h141.2v42.1
                c0,6.6,5.4,12,12,12s12-5.4,12-12v-42.1h47.6l26.8,301.8C410.25,441.7,389.05,459,363.05,459z"/>
        </g>
        <g>
        </g>
        <g>
        </g>
        <g>
        </g>
        <g>
        </g>
        <g>
        </g>
        <g>
        </g>
        <g>
        </g>
        <g>
        </g>
        <g>
        </g>
        <g>
        </g>
        <g>
        </g>
        <g>
        </g>
        <g>
        </g>
        <g>
        </g>
        <g>
        </g>
        </svg>
        
        <svg viewBox="0 0 212 189" id="metamask"><g fill="none" fill-rule="evenodd"><polygon fill="#CDBDB2" points="60.75 173.25 88.313 180.563 88.313 171 90.563 168.75 106.313 168.75 106.313 180 106.313 187.875 89.438 187.875 68.625 178.875"/><polygon fill="#CDBDB2" points="105.75 173.25 132.75 180.563 132.75 171 135 168.75 150.75 168.75 150.75 180 150.75 187.875 133.875 187.875 113.063 178.875" transform="matrix(-1 0 0 1 256.5 0)"/><polygon fill="#393939" points="90.563 152.438 88.313 171 91.125 168.75 120.375 168.75 123.75 171 121.5 152.438 117 149.625 94.5 150.188"/><polygon fill="#F89C35" points="75.375 27 88.875 58.5 95.063 150.188 117 150.188 123.75 58.5 136.125 27"/><polygon fill="#F89D35" points="16.313 96.188 .563 141.75 39.938 139.5 65.25 139.5 65.25 119.813 64.125 79.313 58.5 83.813"/><polygon fill="#D87C30" points="46.125 101.25 92.25 102.375 87.188 126 65.25 120.375"/><polygon fill="#EA8D3A" points="46.125 101.813 65.25 119.813 65.25 137.813"/><polygon fill="#F89D35" points="65.25 120.375 87.75 126 95.063 150.188 90 153 65.25 138.375"/><polygon fill="#EB8F35" points="65.25 138.375 60.75 173.25 90.563 152.438"/><polygon fill="#EA8E3A" points="92.25 102.375 95.063 150.188 86.625 125.719"/><polygon fill="#D87C30" points="39.375 138.938 65.25 138.375 60.75 173.25"/><polygon fill="#EB8F35" points="12.938 188.438 60.75 173.25 39.375 138.938 .563 141.75"/><polygon fill="#E8821E" points="88.875 58.5 64.688 78.75 46.125 101.25 92.25 102.938"/><polygon fill="#DFCEC3" points="60.75 173.25 90.563 152.438 88.313 170.438 88.313 180.563 68.063 176.625"/><polygon fill="#DFCEC3" points="121.5 173.25 150.75 152.438 148.5 170.438 148.5 180.563 128.25 176.625" transform="matrix(-1 0 0 1 272.25 0)"/><polygon fill="#393939" points="70.313 112.5 64.125 125.438 86.063 119.813" transform="matrix(-1 0 0 1 150.188 0)"/><polygon fill="#E88F35" points="12.375 .563 88.875 58.5 75.938 27"/><path fill="#8E5A30" d="M12.3750002,0.562500008 L2.25000003,31.5000005 L7.87500012,65.250001 L3.93750006,67.500001 L9.56250014,72.5625 L5.06250008,76.5000011 L11.25,82.1250012 L7.31250011,85.5000013 L16.3125002,96.7500014 L58.5000009,83.8125012 C79.1250012,67.3125004 89.2500013,58.8750003 88.8750013,58.5000009 C88.5000013,58.1250009 63.0000009,38.8125006 12.3750002,0.562500008 Z"/><g transform="matrix(-1 0 0 1 211.5 0)"><polygon fill="#F89D35" points="16.313 96.188 .563 141.75 39.938 139.5 65.25 139.5 65.25 119.813 64.125 79.313 58.5 83.813"/><polygon fill="#D87C30" points="46.125 101.25 92.25 102.375 87.188 126 65.25 120.375"/><polygon fill="#EA8D3A" points="46.125 101.813 65.25 119.813 65.25 137.813"/><polygon fill="#F89D35" points="65.25 120.375 87.75 126 95.063 150.188 90 153 65.25 138.375"/><polygon fill="#EB8F35" points="65.25 138.375 60.75 173.25 90 153"/><polygon fill="#EA8E3A" points="92.25 102.375 95.063 150.188 86.625 125.719"/><polygon fill="#D87C30" points="39.375 138.938 65.25 138.375 60.75 173.25"/><polygon fill="#EB8F35" points="12.938 188.438 60.75 173.25 39.375 138.938 .563 141.75"/><polygon fill="#E8821E" points="88.875 58.5 64.688 78.75 46.125 101.25 92.25 102.938"/><polygon fill="#393939" points="70.313 112.5 64.125 125.438 86.063 119.813" transform="matrix(-1 0 0 1 150.188 0)"/><polygon fill="#E88F35" points="12.375 .563 88.875 58.5 75.938 27"/><path fill="#8E5A30" d="M12.3750002,0.562500008 L2.25000003,31.5000005 L7.87500012,65.250001 L3.93750006,67.500001 L9.56250014,72.5625 L5.06250008,76.5000011 L11.25,82.1250012 L7.31250011,85.5000013 L16.3125002,96.7500014 L58.5000009,83.8125012 C79.1250012,67.3125004 89.2500013,58.8750003 88.8750013,58.5000009 C88.5000013,58.1250009 63.0000009,38.8125006 12.3750002,0.562500008 Z"/></g></g>
        </svg>

</svg>